<svg width="33" height="33" viewBox="0 0 33 33" fill="none" xmlns="http://www.w3.org/2000/svg">
<g clip-path="url(#clip0_2039_2)">
<rect width="33" height="33" fill="white"/>
<rect width="33" height="33" rx="6" fill="#3451B2"/>
<path d="M17.0339 16.681C16.9979 16.5906 16.9891 16.4915 17.0088 16.3962C17.0284 16.3008 17.0756 16.2133 17.1444 16.1445C17.2132 16.0756 17.3008 16.0285 17.3961 16.0088C17.4915 15.9892 17.5905 15.9979 17.6809 16.034L26.6809 19.534C26.7774 19.5717 26.8598 19.6384 26.9167 19.725C26.9736 19.8116 27.0023 19.9137 26.9987 20.0172C26.995 20.1207 26.9593 20.2206 26.8965 20.3029C26.8337 20.3853 26.7468 20.4461 26.6479 20.477L23.2039 21.545C23.0485 21.593 22.9072 21.6783 22.7922 21.7933C22.6772 21.9083 22.592 22.0496 22.5439 22.205L21.4769 25.648C21.4461 25.7469 21.3852 25.8337 21.3029 25.8966C21.2205 25.9594 21.1207 25.9951 21.0171 25.9987C20.9136 26.0023 20.8115 25.9737 20.7249 25.9168C20.6384 25.8599 20.5716 25.7775 20.5339 25.681L17.0339 16.681Z" stroke="#00FBFF" stroke-width="2" stroke-linecap="round" stroke-linejoin="round"/>
<path d="M26 15V9C26 8.46957 25.7893 7.96086 25.4142 7.58579C25.0391 7.21071 24.5304 7 24 7H10C9.46957 7 8.96086 7.21071 8.58579 7.58579C8.21071 7.96086 8 8.46957 8 9V23C8 23.5304 8.21071 24.0391 8.58579 24.4142C8.96086 24.7893 9.46957 25 10 25H16" stroke="#00FBFF" stroke-width="2" stroke-linecap="round" stroke-linejoin="round"/>
</g>
<defs>
<clipPath id="clip0_2039_2">
<rect width="33" height="33" fill="white"/>
</clipPath>
</defs>
</svg>
